<?xml version="1.0" encoding="UTF-8" standalone="no"?>
<svg
   version="1.1"
   x="0px"
   y="0px"
   viewBox="0 0 100 100"
   xml:space="preserve"
   id="svg2"
   sodipodi:docname="logo_nobg.svg"
   width="100"
   height="100"
   inkscape:version="1.3.2 (091e20ef0f, 2023-11-25, custom)"
   xmlns:inkscape="http://www.inkscape.org/namespaces/inkscape"
   xmlns:sodipodi="http://sodipodi.sourceforge.net/DTD/sodipodi-0.dtd"
   xmlns="http://www.w3.org/2000/svg"
   xmlns:svg="http://www.w3.org/2000/svg"><defs
     id="defs2" /><sodipodi:namedview
     id="namedview2"
     pagecolor="#ffffff"
     bordercolor="#666666"
     borderopacity="1.0"
     inkscape:showpageshadow="2"
     inkscape:pageopacity="0.0"
     inkscape:pagecheckerboard="0"
     inkscape:deskcolor="#d1d1d1"
     showgrid="false"
     inkscape:zoom="6.44"
     inkscape:cx="49.84472"
     inkscape:cy="62.5"
     inkscape:window-width="1920"
     inkscape:window-height="1011"
     inkscape:window-x="1080"
     inkscape:window-y="445"
     inkscape:window-maximized="1"
     inkscape:current-layer="svg2" /><g
     id="g1"
     style="fill:#000000"><path
       d="m 38,6.2 c 2.9,-0.6 5.8,-0.8 8.8,-0.9 4.2,-0.1 8.5,0 12.7,0.5 1.6,0.2 3.3,0.5 4.8,1.2 0.4,0.2 1,0.5 1.1,1 0,2.1 0,4.2 0,6.4 2.3,0.2 4.5,0.3 6.8,0.6 1.5,0.2 3.1,0.4 4.6,0.8 0.7,0.2 1.3,0.3 2,0.6 0.2,0.1 0.5,0.3 0.6,0.5 0.1,0.2 -0.1,0.4 -0.3,0.6 -0.4,0.3 -0.9,0.4 -1.3,0.6 -1.2,0.4 -2.4,0.6 -3.7,0.8 -2.4,0.4 -4.8,0.6 -7.2,0.8 1.6,1.5 2.9,3.3 3.9,5.2 6.5,-1.9 13,-3.7 19.5,-5.6 -0.7,7.1 -1.5,14.2 -2.2,21.3 1,0.8 1.8,1.9 2.3,3.1 0.8,1.8 1.2,3.7 1.3,5.7 0.1,2 -0.1,4 -0.5,6 -0.5,2.5 -1.5,5.1 -3.2,7.1 -0.7,0.8 -1.5,1.5 -2.4,1.9 -0.6,6 -1.2,11.9 -1.9,17.9 -13.5,4.4 -27,8.8 -40.6,13.1 -8.5,-4.5 -17,-9 -25.5,-13.5 C 17,76.1 16.4,70.4 15.8,64.6 14.4,64.3 13.2,63.2 12.3,62.1 10.6,60 9.8,57.3 9.4,54.7 9.1,52.4 9,50.2 9.2,48 c 0.3,-2 0.8,-4 2,-5.8 0.6,-0.8 1.3,-1.6 2.1,-2.1 -0.7,-7 -1.5,-13.9 -2.2,-20.9 5.6,2.3 11.2,4.6 16.8,7 1.1,-2.5 2.7,-4.8 4.7,-6.7 -2.8,-0.2 -5.7,-0.5 -8.4,-1.1 -0.9,-0.2 -1.7,-0.4 -2.5,-0.8 -0.2,-0.1 -0.5,-0.4 -0.4,-0.7 0.2,-0.3 0.6,-0.5 0.9,-0.6 1.1,-0.4 2.2,-0.6 3.4,-0.8 2.8,-0.5 5.7,-0.7 8.5,-1 0,-2.1 0,-4.2 0,-6.3 0,-0.5 0.4,-0.7 0.8,-0.9 1,-0.6 2.1,-0.8 3.1,-1.1 m 5.5,28.9 c 0,19.1 0,38.3 0,57.4 C 56.1,88.4 68.7,84.3 81.4,80.2 81.9,75 82.5,69.7 83,64.5 80.2,64.2 77.4,64 74.6,63.7 73.8,63.6 73.1,63.6 72.4,63.3 71.2,62.8 70.2,61.6 70,60.2 c -0.2,-1 0.1,-2.1 0.6,-2.9 -1,-0.6 -1.7,-1.6 -1.9,-2.7 -0.2,-1.1 0,-2.3 0.7,-3.2 -0.7,-0.5 -1.3,-1.2 -1.5,-2.1 -0.4,-1.1 -0.2,-2.3 0.3,-3.3 0.6,-1 1.5,-1.7 2.6,-2 -0.4,-1.1 -0.3,-2.4 0.3,-3.4 0.6,-1.1 1.8,-1.9 3.1,-2.1 0.5,-0.1 1.1,0 1.6,0.1 3.3,0.3 6.6,0.6 9.9,0.9 0.6,-5.7 1.2,-11.4 1.8,-17.1 -14.7,4.4 -29.4,8.5 -44,12.7 m -7.1,-12 c -1.2,0.5 -2.1,1.5 -2.4,2.7 -0.3,1 -0.2,2 0.2,2.9 1.8,0.7 3.5,1.5 5.3,2.2 1,-0.4 1.9,-1.2 2.3,-2.1 -0.5,0.1 -0.9,0 -1.4,-0.2 -0.7,-0.3 -1.1,-1 -1.2,-1.7 -0.1,-0.7 0.3,-1.5 0.9,-1.9 0.4,-0.3 0.9,-0.4 1.4,-0.4 -0.4,-0.6 -0.9,-1 -1.5,-1.4 -1,-0.5 -2.4,-0.6 -3.6,-0.1 m 13.8,0.8 c -0.9,0.9 -1.4,2.2 -1.3,3.4 0.1,1.2 0.8,2.4 1.8,3.1 1.9,-0.5 3.8,-1.1 5.6,-1.6 -0.8,0 -1.6,-0.6 -1.9,-1.3 -0.3,-0.7 -0.1,-1.6 0.4,-2.2 0.4,-0.5 1.1,-0.7 1.7,-0.7 -0.7,-1 -1.8,-1.7 -2.9,-1.8 -1.2,-0.2 -2.5,0.3 -3.4,1.1 M 14.1,23.1 c 0.6,5.5 1.1,11 1.7,16.4 3.2,-0.3 6.3,-0.5 9.5,-0.8 0.5,0 1,-0.1 1.4,0 1.3,0.1 2.4,0.9 3.1,2 0.6,1 0.7,2.4 0.3,3.5 0.9,0.2 1.8,0.8 2.3,1.6 0.7,0.9 0.9,2.1 0.7,3.2 -0.2,1 -0.8,2 -1.7,2.6 0.7,0.9 0.9,2.2 0.6,3.3 -0.3,1.1 -1,2 -1.9,2.5 0.7,1 0.8,2.3 0.5,3.4 -0.5,1.5 -1.9,2.7 -3.5,2.8 -2.9,0.2 -5.8,0.5 -8.6,0.7 0.5,5.3 1.1,10.5 1.7,15.8 7.3,4 14.7,7.9 22.1,11.9 0,-19.1 0,-38.1 0,-57.2 C 32.9,30.9 23.5,27 14.1,23.1 m 11.8,18.1 c -3.7,0.3 -7.3,0.6 -11,0.9 -0.2,0 -0.4,0.2 -0.6,0.3 -0.6,0.4 -1,1 -1.3,1.6 -0.7,1.2 -1.1,2.6 -1.3,3.9 -0.3,1.8 -0.2,3.7 0,5.5 0.2,1.7 0.6,3.4 1.3,4.9 0.6,1.2 1.3,2.3 2.3,3.1 0.4,0.3 0.8,0.6 1.3,0.5 C 20,61.6 23.3,61.4 26.7,61.1 27.4,61 28,60.4 28.1,59.7 28.2,59 27.7,58.3 27,58.1 26.7,58 26.3,58 26,58.1 c -2.4,0.2 -4.9,0.4 -7.3,0.6 -0.6,0.1 -1.3,-0.4 -1.4,-1.1 -0.1,-0.7 0.4,-1.4 1.1,-1.4 3.2,-0.3 6.4,-0.5 9.6,-0.8 0.5,0 1,-0.4 1.3,-0.8 0.2,-0.5 0.2,-1 0,-1.5 -0.3,-0.5 -0.9,-0.8 -1.5,-0.8 -3.2,0.3 -6.4,0.5 -9.6,0.8 -0.6,0.1 -1.3,-0.5 -1.3,-1.1 -0.1,-0.7 0.5,-1.3 1.1,-1.4 3.7,-0.3 7.4,-0.6 11.1,-0.9 0.9,-0.1 1.6,-1.1 1.4,-2 -0.2,-0.7 -0.9,-1.2 -1.6,-1.1 -3.6,0.3 -7.1,0.6 -10.7,0.9 -0.3,0 -0.7,0.1 -1,-0.1 -0.5,-0.2 -0.8,-0.8 -0.8,-1.3 0.1,-0.6 0.6,-1 1.2,-1.1 2.9,-0.2 5.7,-0.5 8.6,-0.7 0.9,0 1.6,-0.8 1.5,-1.7 0,-0.8 -0.9,-1.5 -1.8,-1.4 m 48.3,0 c -0.6,0.2 -1.1,0.8 -1.1,1.5 0,0.8 0.6,1.5 1.4,1.5 2.8,0.3 5.6,0.5 8.5,0.8 0.3,0 0.6,0.1 0.9,0.3 0.5,0.4 0.6,1.1 0.3,1.7 -0.3,0.4 -0.7,0.6 -1.2,0.6 -3.7,-0.4 -7.4,-0.7 -11.1,-1.1 -0.8,-0.1 -1.6,0.6 -1.6,1.4 -0.1,0.8 0.6,1.6 1.4,1.7 3.7,0.4 7.4,0.7 11.1,1.1 0.5,0 1,0.5 1.1,1 0.1,0.6 -0.2,1.2 -0.8,1.4 -0.3,0.1 -0.6,0.1 -0.9,0 -3.1,-0.3 -6.1,-0.6 -9.2,-0.9 -0.3,0 -0.6,0 -0.9,0.2 -0.6,0.3 -0.9,1 -0.8,1.6 0.1,0.7 0.7,1.3 1.4,1.3 3.2,0.3 6.4,0.6 9.6,0.9 0.6,0.1 1,0.6 1.1,1.2 0,0.5 -0.3,1.1 -0.8,1.3 -0.3,0.1 -0.7,0.1 -1,0 -2.4,-0.2 -4.9,-0.5 -7.3,-0.7 -0.8,-0.1 -1.5,0.5 -1.6,1.3 -0.1,0.6 0.2,1.3 0.8,1.6 0.3,0.2 0.6,0.2 1,0.2 3.2,0.3 6.3,0.6 9.5,0.9 0.2,0 0.5,0.1 0.7,0 0.7,-0.2 1.2,-0.7 1.7,-1.2 1,-1 1.6,-2.3 2.1,-3.7 0.6,-1.8 0.9,-3.7 1.1,-5.6 0.1,-2 0,-4.1 -0.7,-6 -0.4,-1 -0.9,-2.1 -1.7,-2.8 -0.3,-0.2 -0.6,-0.5 -0.9,-0.5 -3.5,-0.3 -7,-0.7 -10.5,-1 -0.9,0 -1.3,-0.1 -1.6,0 z"
       id="path1"
       style="fill:#000000" /></g></svg>
